<svg viewBox="0 0 900 900" xmlns="http://www.w3.org/2000/svg"
>
<rect width="900" height="900" fill="none"/>
<g>
<path fill-rule="evenodd" clip-rule="evenodd" d="M0 0H900V900H0V0ZM807.118 376.428C774.218 280.128 741.818 197.028 681.818 152.628C621.918 108.128 534.518 102.328 444.018 98.628C353.518 94.928 259.818 93.328 213.718 140.228C184.69 169.634 174.414 218.226 162.252 275.736C155.058 309.755 147.204 346.894 134.418 385.028C124.196 415.636 110.794 446.892 97.5947 477.674C66.5061 550.177 36.5452 620.05 51.9183 672.628C73.8183 747.428 187.618 787.128 290.218 799.028C392.718 810.828 484.018 794.928 585.018 772.428C685.918 749.928 796.418 721.028 835.018 651.728C873.518 582.428 840.018 472.728 807.118 376.428Z" fill="#232933"/>
</g>
</svg>
