<svg width="173" height="243" viewBox="0 0 173 243" fill="none" xmlns="http://www.w3.org/2000/svg">
<path d="M154.548 76.7787C167.478 77.1773 168.975 75.8773 168.975 75.8773C172.331 73.616 164.982 68.276 164.982 68.276C155.706 62.2213 136.126 63.5107 136.126 63.5107C136.126 63.5107 128.138 64.5413 124.917 61.32C121.697 58.1 129.985 50.4973 129.985 50.4973C129.985 50.4973 139.604 40.8787 136.856 30.9173C134.109 20.956 101.816 19.5813 76.0518 25.42C50.2878 31.26 31.3932 32.9787 25.2079 27.1387C19.0252 21.2973 36.5452 -9.99747e-06 36.5452 -9.99747e-06C22.1172 10.1333 6.4865 21.2987 4.08117 41.9107C1.67717 62.5227 42.3838 54.7933 42.3838 54.7933C42.3838 54.7933 76.9091 47.7507 79.4851 58.4C82.0638 69.0493 54.7518 89.8333 54.7518 89.8333C8.2038 128.48 -0.298808 163.525 0.00785885 170.144C0.313192 176.763 2.79315 171.849 2.79315 171.849C11.8105 156.649 24.1785 134.235 71.5851 105.12C118.992 76.0053 154.548 76.7787 154.548 76.7787Z" fill="#7B98A9"/>
<path d="M141.281 139.041L159.317 126.159C159.317 126.159 192.638 100.393 153.477 101.94C114.313 103.488 76.6985 128.735 76.6985 128.735C55.5665 142.277 52.8772 163.718 52.8772 163.718C52.8772 163.718 49.3145 184.653 79.6184 186.791C108.606 188.836 104.011 206.888 104.011 206.888C96.1065 242.616 23.7945 238.492 23.7945 238.492C100.744 257.388 142.828 205.341 157.428 181.296C172.026 157.249 157.944 152.781 141.454 151.409C124.962 150.035 141.281 139.041 141.281 139.041Z" fill="#2C63A9"/>
</svg>
