<svg xmlns="http://www.w3.org/2000/svg" viewBox="0 0 97.33 99.83">
<path d="M48.666 14.263a9.162 9.162 0 0 0-9.163 9.162c0 3.638 2.119 6.701 5.19 8.18l-27.984.037C16.879 14.137 31.122 0 48.666 0c17.543 0 31.787 14.137 31.956 31.641l-27.985-.037c3.071-1.479 5.192-4.542 5.192-8.18a9.161 9.161 0 0 0-9.163-9.161M48.666 64.096c15.123 0 27.734-10.54 31.051-24.649 0 1.697-3.265 3.073-7.585 3.073-4.319 0-7.822-1.375-7.822-3.073 0 1.697-3.502 3.073-7.822 3.073s-7.823-1.375-7.823-3.073c0 1.697-3.502 3.073-7.822 3.073-4.319 0-7.822-1.375-7.822-3.073 0 1.697-3.503 3.073-7.822 3.073-4.32 0-7.585-1.375-7.585-3.073 3.317 14.109 15.929 24.649 31.052 24.649z" fill="#397db7"/>
<path d="M48.666 97.68C46.207 56.039 0 50.907 0 50.907c6.015 51.351 46.659 49.014 48.666 48.867 2.006.146 42.65 2.483 48.665-48.867 0 0-46.206 5.132-48.665 46.773z" fill="#397db7"/></svg>