<svg xmlns="http://www.w3.org/2000/svg" viewBox="0 0 120 120"
fill="red"

><path d="M 100.64 9.82 h -8.23 v 21.27 h 8.23 c 6.13 0 10.76 -4 10.76 -10.64 s -4.63 -10.63 -10.76 -10.63 z M 100 26.27 h -1.9 V 14.63 h 1.9 c 3.44 0 5.57 2.29 5.57 5.82 s -2.12 5.82 -5.57 5.82 z m -29.8 -16.73 c 0 -0.19 0.09 -0.35 0.44 -0.06 l 13.36 11 V 9.82 h 5.35 V 31.4 c 0 0.25 -0.1 0.34 -0.44 0.06 l -13.36 -11 v 10.63 h -5.35 z M 57.67 35.28 l -17.85 40.45 h 35.69 z m 0 20.14 L 63 68.19 H 52.34 z m 21.53 36.66 V 92 h -1.52 l -3 7 h 1.77 l 0.61 -1.5 h 2.62 l 0.61 1.5 h 1.8 z m -1.48 3.86 l 0.71 -1.71 l 0.7 1.71 z m -19.19 -86.5 c -0.09 -0.22 -0.28 -0.22 -0.37 0 L 47.8 31.09 h 5.6 l 0.78 -1.82 h 8 l 0.82 1.82 h 5.86 z M 56 25 l 2.09 -4.93 L 60.31 25 z M 37.16 66.64 v 9.09 h -28 v -40.4 H 20 v 31.31 z M 18.87 9.57 a 10.37 10.37 0 0 1 8.54 3.78 l -4 3.44 a 5.67 5.67 0 0 0 -4.7 -2.28 c -3.47 0 -5.38 2.6 -5.38 5.94 s 1.94 6.13 5.7 6.13 a 8.8 8.8 0 0 0 4.13 -0.84 v -1.82 H 19 v -4.37 h 9.29 v 8.88 c -2 1.63 -4.53 2.94 -9.26 2.94 c -6.25 0 -11.45 -4.5 -11.45 -10.92 s 5.16 -10.88 11.29 -10.88 z m -6.82 82.37 a 3.64 3.64 0 0 1 2.72 1.06 l 0.08 0.08 l -1.1 1.27 l -0.09 -0.09 a 2.38 2.38 0 0 0 -1.62 -0.72 a 2 2 0 0 0 0 4 a 2.3 2.3 0 0 0 1.67 -0.75 l 0.09 -0.09 l 1.1 1.12 l -0.08 0.09 A 3.56 3.56 0 0 1 12 99.1 a 3.48 3.48 0 0 1 -3.55 -3.41 v -0.15 a 3.52 3.52 0 0 1 3.45 -3.6 z m 6.26 11.77 l -1.07 3.08 h -1 l 0.18 -3.29 h 1.87 z m 15 5.72 a 4.41 4.41 0 0 1 -2.94 1.09 a 3.48 3.48 0 0 1 -3.63 -3.32 a 1 1 0 0 1 0 -0.24 a 3.56 3.56 0 0 1 3.52 -3.6 h 0.1 a 3.78 3.78 0 0 1 2.71 1 l 0.09 0.08 l -1.08 1.3 l -0.1 -0.08 a 2.36 2.36 0 0 0 -1.67 -0.65 a 2 2 0 1 0 0.11 4 a 2.31 2.31 0 0 0 1.25 -0.34 v -0.76 h -1.46 v -1.52 h 3.15 z m 0.47 -11.94 L 32.17 95 v 4 h -1.69 v -6.93 h 1.78 l 1.68 2.71 l 1.69 -2.71 h 1.78 V 99 H 35.7 v -4.07 l -1.7 2.55 z m 7.34 11.94 a 4.38 4.38 0 0 1 -2.93 1.09 a 3.48 3.48 0 0 1 -3.63 -3.32 a 1 1 0 0 1 0 -0.24 a 3.56 3.56 0 0 1 3.52 -3.6 h 0.1 a 3.78 3.78 0 0 1 2.71 1 l 0.1 0.08 l -1.09 1.3 l -0.1 -0.08 a 2.36 2.36 0 0 0 -1.67 -0.65 a 2 2 0 1 0 0.11 4 a 2.34 2.34 0 0 0 1.26 -0.34 v -0.77 H 38 v -1.52 h 3.15 z m 35.62 -1.43 a 2.19 2.19 0 0 0 1.36 -2.14 c 0 -1.44 -1 -2.33 -2.64 -2.33 h -3.18 v 6.92 H 74 v -2.13 h 1 l 1.43 2.13 h 2 z m -1.37 -1.22 H 74 v -1.67 h 1.38 c 0.47 0 1 0.15 1 0.86 c -0.01 0.47 -0.38 0.78 -1.01 0.78 z m -63.9 -3.25 h -2.73 v 6.93 h 3.2 a 3.47 3.47 0 1 0 -0.47 -6.93 z m 1.89 3.7 a 1.79 1.79 0 0 1 -1.89 1.66 h -1 v -3.78 h 1.21 a 1.8 1.8 0 0 1 1.68 1.89 z m 28.76 -15.14 h 1.77 l 1.69 2.71 l 1.69 -2.71 h 1.78 V 99 h -1.68 v -4.07 l -1.69 2.56 h -0.17 L 43.84 95 v 4 h -1.69 z m 5.57 18.37 h -5 v -6.96 h 1.71 v 5.35 h 3.32 z m 6 -14.43 v -3.94 h 1.72 V 96 c 0 1 0.47 1.53 1.32 1.53 s 1.31 -0.51 1.31 -1.48 v -4 h 1.72 v 4 a 2.78 2.78 0 0 1 -2.4 3.12 a 3 3 0 0 1 -0.6 0 a 2.78 2.78 0 0 1 -3 -2.52 a 2.62 2.62 0 0 1 0 -0.56 z m 10.21 14.39 h -1.7 v -4.07 l -1.69 2.56 h -0.17 l -1.67 -2.53 v 4 H 57 v -6.93 h 1.78 l 1.68 2.71 l 1.69 -2.71 h 1.78 z m 0.52 -18.37 H 66 l 2.9 3.82 V 92 h 1.7 v 7 h -1.43 l -3 -4 v 4 h -1.74 z m 5.57 9.86 l -1.4 1.31 h -1.38 l 1.26 -2 z m 0.94 8.51 H 65.6 v -6.92 h 5.28 v 1.56 h -3.57 v 1.1 h 3.14 v 1.56 h -3.14 v 1.15 h 3.62 z m 12.5 -6.93 v -0.07 h -1.52 l -3 7 h 1.77 l 0.61 -1.5 H 84 l 0.61 1.5 h 1.81 z m -1.5 3.89 l 0.7 -1.71 l 0.7 1.71 z m 9.94 -2.28 h -2 v 5.32 h -1.72 v -5.32 h -2 v -1.6 h 5.79 z m 0.13 -9.1 a 2.82 2.82 0 0 1 -2.47 3.13 a 1.88 1.88 0 0 1 -0.58 0 a 2.77 2.77 0 0 1 -3 -2.51 a 2.81 2.81 0 0 1 0 -0.58 v -3.94 h 1.72 v 3.9 c 0 1 0.47 1.53 1.31 1.53 s 1.32 -0.51 1.32 -1.48 v -4 h 1.7 z m 2.87 14.48 h -1.72 v -7 h 1.72 z m 1.29 -16.76 v -1.61 H 102 v 1.61 h -2 V 99 h -1.72 v -5.32 z m 15.1 16.71 h -1.44 v -0.05 l -3 -3.95 v 4 h -1.71 v -6.92 h 1.54 l 2.9 3.82 v -3.83 h 1.71 z m 0.3 -11.44 h -5.34 v -6.92 h 5.29 v 1.55 h -3.58 v 1.11 h 3.15 v 1.55 h -3.15 v 1.15 h 3.63 z m -3.72 -7.2 l 1.25 -2 l 1.53 0.67 l -1.4 1.31 z m -13.14 -16.05 c -11.09 0 -20.55 -8.36 -20.55 -20.26 a 19.9 19.9 0 0 1 19.6 -20.2 h 0.37 c 8.53 0 13.76 3.6 17.07 8.47 l -8 5.4 a 9.73 9.73 0 0 0 -8.93 -4.7 c -5.81 0 -9.35 4.82 -9.35 11 s 3.66 11.08 9.69 11.08 c 5.11 0 7.61 -2.32 9.29 -5.45 L 112 66.3 c -3.89 6.56 -9.34 9.4 -17.35 9.4 z m 9 31.06 a 3.53 3.53 0 0 0 -3.66 -3.4 h -0.07 a 3.61 3.61 0 0 0 -3.59 3.6 v 0.14 a 3.54 3.54 0 0 0 3.66 3.41 h 0.05 a 3.6 3.6 0 0 0 3.61 -3.59 a 0.43 0.43 0 0 0 0 -0.16 z m -1.78 0.28 A 1.89 1.89 0 0 1 100 109 h -0.08 a 1.9 1.9 0 0 1 -1.8 -2 v -0.08 A 1.87 1.87 0 0 1 100 105 h 0.08 a 1.9 1.9 0 0 1 1.8 2 z M 47.49 18.17 c 0 -4.73 -3.22 -8.36 -8.95 -8.36 h -8.07 v 21.24 h 5.7 v -4.88 h 2.1 l 3 4.88 h 6.16 l -3.79 -6 a 7.42 7.42 0 0 0 3.85 -6.88 z m -9.23 3.46 h -2.09 v -7 h 2.09 c 2.57 0 3.51 1.47 3.51 3.54 s -0.94 3.5 -3.51 3.46 z m -16 70.31 h -0.08 a 3.6 3.6 0 0 0 -3.6 3.6 v 0.16 a 3.53 3.53 0 0 0 3.66 3.4 h 0.09 a 3.6 3.6 0 0 0 3.6 -3.6 v -0.16 a 3.55 3.55 0 0 0 -3.62 -3.4 z m 1.94 3.68 a 1.88 1.88 0 0 1 -1.88 1.88 h -0.1 a 1.9 1.9 0 0 1 -1.79 -2 v -0.08 a 1.87 1.87 0 0 1 1.88 -1.86 h 0.1 a 1.9 1.9 0 0 1 1.8 2 z m -0.74 7.89 v -0.08 H 22 l -3 7 h 1.74 l 0.61 -1.5 H 24 l 0.61 1.5 h 1.88 z M 22 107.38 l 0.7 -1.71 l 0.7 1.71 z m 33.55 -0.59 a 3.53 3.53 0 0 0 -3.66 -3.4 h -0.11 a 3.58 3.58 0 0 0 -3.57 3.61 a 0.43 0.43 0 0 0 0 0.16 a 3.53 3.53 0 0 0 3.66 3.4 H 52 a 3.59 3.59 0 0 0 3.58 -3.6 v -0.16 z m -1.78 0.27 a 1.88 1.88 0 0 1 -1.88 1.88 h -0.12 a 1.89 1.89 0 0 1 -1.77 -2 v -0.08 a 1.88 1.88 0 0 1 1.91 -1.86 H 52 a 1.89 1.89 0 0 1 1.77 2 z" fill="#fff"/></svg>