<svg
    width="900"
    height="900"
    viewBox="0 0 900 900"
    fill="none"
    xmlns="http://www.w3.org/2000/svg">
    <path
        d="M0 0H900V900H0V0ZM735.855 311.481C727.946 253.347 721.651 207.082 693.992 190.264C662.327 171.125 602.737 190.457 540.76 210.564C514.658 219.032 488.133 227.638 463.092 233.564C426.13 242.313 392.382 245.264 361.573 247.958C321.948 251.423 287.184 254.462 256.692 268.864C202.592 294.464 161.892 356.064 121.292 439.464C80.692 522.764 40.092 627.864 79.692 677.364C119.292 726.864 239.192 720.664 325.692 710.764C346.453 708.364 365.29 705.745 383.256 703.247C440.141 695.338 488.285 688.644 561.092 693.964C582.16 695.483 605.293 698.01 628.912 700.591C712.581 709.731 802.357 719.538 828.092 687.564C849.548 660.826 826.219 604.912 798.934 539.514C784.38 504.633 768.701 467.053 758.092 429.764C746.342 388.564 740.785 347.717 735.855 311.481Z"
        fill="#232933"
    />
</svg>
