<svg 
    width="900" 
    height="900" 
    viewBox="0 0 900 900"
    fill="none"
    xmlns="http://www.w3.org/2000/svg"
>
    <g class="blob1">
        <path 
            d="M0 0H900V900H0V0ZM780.846 338.173C804.046 256.673 803.046 147.773 748.946 96.6726C705.052 55.2887 626.265 51.7488 537.391 47.7556C516.525 46.8181 495.103 45.8557 473.446 44.3726C453.975 43.022 434.31 41.2507 414.788 39.4921C320.114 30.9639 228.789 22.7374 179.046 64.2726C125.64 108.941 120.407 211.162 115.293 311.047C114.671 323.193 114.051 335.304 113.346 347.273C112.356 363.829 111.205 380.114 110.072 396.123C103.655 486.858 97.8652 568.72 125.746 640.973C158.546 725.873 238.046 797.473 333.246 836.773C428.446 875.973 539.246 882.873 596.746 826.073C637.058 786.251 651.222 715.12 664.978 646.036C670.843 616.581 676.634 587.498 684.346 561.373C697.315 517.441 715.766 481.897 733.857 447.046C751.758 412.562 769.308 378.756 780.846 338.173Z"
            fill="#232933"
        />
    </g>

    <g class="blob2">
        <path
            d="M0 0H900V900H0V0ZM735.855 311.481C727.946 253.347 721.651 207.082 693.992 190.264C662.327 171.125 602.737 190.457 540.76 210.564C514.658 219.032 488.133 227.638 463.092 233.564C426.13 242.313 392.382 245.264 361.573 247.958C321.948 251.423 287.184 254.462 256.692 268.864C202.592 294.464 161.892 356.064 121.292 439.464C80.692 522.764 40.092 627.864 79.692 677.364C119.292 726.864 239.192 720.664 325.692 710.764C346.453 708.364 365.29 705.745 383.256 703.247C440.141 695.338 488.285 688.644 561.092 693.964C582.16 695.483 605.293 698.01 628.912 700.591C712.581 709.731 802.357 719.538 828.092 687.564C849.548 660.826 826.219 604.912 798.934 539.514C784.38 504.633 768.701 467.053 758.092 429.764C746.342 388.564 740.785 347.717 735.855 311.481Z"
            fill="#232933"
        />
    </g>
</svg>
