<svg id="visual" viewBox="0 0 900 200" width="900" height="200" xmlns="http://www.w3.org/2000/svg" xmlns:xlink="http://www.w3.org/1999/xlink" version="1.1"><rect x="0" y="0" width="900" height="200" fill="#15171C"></rect><path d="M0 102L21.5 98.7C43 95.3 86 88.7 128.8 85.3C171.7 82 214.3 82 257.2 91.3C300 100.7 343 119.3 385.8 126.5C428.7 133.7 471.3 129.3 514.2 121.7C557 114 600 103 642.8 92.5C685.7 82 728.3 72 771.2 67C814 62 857 62 878.5 62L900 62L900 0L878.5 0C857 0 814 0 771.2 0C728.3 0 685.7 0 642.8 0C600 0 557 0 514.2 0C471.3 0 428.7 0 385.8 0C343 0 300 0 257.2 0C214.3 0 171.7 0 128.8 0C86 0 43 0 21.5 0L0 0Z" fill="#232933" stroke-linecap="round" stroke-linejoin="miter"></path></svg>