<svg id="visual" viewBox="0 0 900 200" width="900" height="200" xmlns="http://www.w3.org/2000/svg" xmlns:xlink="http://www.w3.org/1999/xlink" version="1.1"><rect x="0" y="0" width="900" height="200" fill="#232933"></rect><path d="M0 90L21.5 85.2C43 80.3 86 70.7 128.8 72.2C171.7 73.7 214.3 86.3 257.2 89.3C300 92.3 343 85.7 385.8 82.8C428.7 80 471.3 81 514.2 89.7C557 98.3 600 114.7 642.8 121C685.7 127.3 728.3 123.7 771.2 122.7C814 121.7 857 123.3 878.5 124.2L900 125L900 0L878.5 0C857 0 814 0 771.2 0C728.3 0 685.7 0 642.8 0C600 0 557 0 514.2 0C471.3 0 428.7 0 385.8 0C343 0 300 0 257.2 0C214.3 0 171.7 0 128.8 0C86 0 43 0 21.5 0L0 0Z" fill="#15171C" stroke-linecap="round" stroke-linejoin="miter"></path></svg>