<svg id="visual" viewBox="0 0 900 200" width="900" height="200" xmlns="http://www.w3.org/2000/svg" xmlns:xlink="http://www.w3.org/1999/xlink" version="1.1"><rect x="0" y="0" width="900" height="200" fill="#15171C"></rect><path d="M0 86L21.5 86.7C43 87.3 86 88.7 128.8 94.5C171.7 100.3 214.3 110.7 257.2 104.2C300 97.7 343 74.3 385.8 64.5C428.7 54.7 471.3 58.3 514.2 67.2C557 76 600 90 642.8 94.3C685.7 98.7 728.3 93.3 771.2 93.2C814 93 857 98 878.5 100.5L900 103L900 0L878.5 0C857 0 814 0 771.2 0C728.3 0 685.7 0 642.8 0C600 0 557 0 514.2 0C471.3 0 428.7 0 385.8 0C343 0 300 0 257.2 0C214.3 0 171.7 0 128.8 0C86 0 43 0 21.5 0L0 0Z" fill="#232933" stroke-linecap="round" stroke-linejoin="miter"></path></svg>